<svg aria-hidden="true" style="position: absolute; width: 0; height: 0; overflow: hidden;" version="1.1" xmlns="http://www.w3.org/2000/svg" xmlns:xlink="http://www.w3.org/1999/xlink">
<defs>
<symbol id="icon-compare_arrows" viewBox="0 0 24 24">
<title>compare_arrows</title>
<path d="M11.016 15l3.984-3.984 3.984 3.984h-3v6.984h-1.969v-6.984h-3zM9.984 9h3l-3.984 3.984-3.984-3.984h3v-6.984h1.969v6.984z"></path>
</symbol>
<symbol id="icon-linkedin" viewBox="0 0 32 32">
<title>linkedin</title>
<path d="M29 0h-26c-1.65 0-3 1.35-3 3v26c0 1.65 1.35 3 3 3h26c1.65 0 3-1.35 3-3v-26c0-1.65-1.35-3-3-3zM12 26h-4v-14h4v14zM10 10c-1.106 0-2-0.894-2-2s0.894-2 2-2c1.106 0 2 0.894 2 2s-0.894 2-2 2zM26 26h-4v-8c0-1.106-0.894-2-2-2s-2 0.894-2 2v8h-4v-14h4v2.481c0.825-1.131 2.087-2.481 3.5-2.481 2.488 0 4.5 2.238 4.5 5v9z"></path>
</symbol>
</defs>
</svg>
