<svg aria-hidden="true" style="position: absolute; width: 0; height: 0; overflow: hidden;" version="1.1" xmlns="http://www.w3.org/2000/svg" xmlns:xlink="http://www.w3.org/1999/xlink">
<defs>
<symbol id="icon-worried-face" viewBox="0 0 32 32">
<title>worried-face</title>
<path d="M16.5 29v0c-6.904 0-12.5-5.596-12.5-12.5s5.596-12.5 12.5-12.5c6.904 0 12.5 5.596 12.5 12.5s-5.596 12.5-12.5 12.5zM16.5 28c6.351 0 11.5-5.149 11.5-11.5s-5.149-11.5-11.5-11.5c-6.351 0-11.5 5.149-11.5 11.5s5.149 11.5 11.5 11.5v0zM16.497 22c-2.997 0-4.497 1-4.497 1s1-3 4.5-3c3.5 0 4.5 3 4.5 3s-1.506-1-4.503-1v0zM12 15c0.552 0 1-0.448 1-1s-0.448-1-1-1c-0.552 0-1 0.448-1 1s0.448 1 1 1v0zM21 15c0.552 0 1-0.448 1-1s-0.448-1-1-1c-0.552 0-1 0.448-1 1s0.448 1 1 1v0zM19 10v1h4v-1h-4zM10 10v1h4v-1h-4z"></path>
</symbol>
<symbol id="icon-laughing-face" viewBox="0 0 32 32">
<title>laughing-face</title>
<path d="M16.5 29v0c-6.904 0-12.5-5.596-12.5-12.5s5.596-12.5 12.5-12.5c6.904 0 12.5 5.596 12.5 12.5s-5.596 12.5-12.5 12.5zM16.5 28c6.351 0 11.5-5.149 11.5-11.5s-5.149-11.5-11.5-11.5c-6.351 0-11.5 5.149-11.5 11.5s5.149 11.5 11.5 11.5v0zM18.672 13.793l2.828-2.828 2.828 2.828-0.707 0.707-2.121-2.121-2.121 2.121-0.707-0.707zM8.672 13.793l2.828-2.828 2.828 2.828-0.707 0.707-2.121-2.121-2.121 2.121-0.707-0.707zM9 19h15c0 0-1 6-7.5 6s-7.5-6-7.5-6zM10.345 20c0 0 1.287 4.013 6.18 4.013s6.118-4.013 6.118-4.013h-12.298z"></path>
</symbol>
<symbol id="icon-neutral-face" viewBox="0 0 32 32">
<title>neutral-face</title>
<path d="M16.5 29v0c-6.904 0-12.5-5.596-12.5-12.5s5.596-12.5 12.5-12.5c6.904 0 12.5 5.596 12.5 12.5s-5.596 12.5-12.5 12.5zM16.5 28c6.351 0 11.5-5.149 11.5-11.5s-5.149-11.5-11.5-11.5c-6.351 0-11.5 5.149-11.5 11.5s5.149 11.5 11.5 11.5v0zM12 14c0.552 0 1-0.448 1-1s-0.448-1-1-1c-0.552 0-1 0.448-1 1s0.448 1 1 1v0zM21 14c0.552 0 1-0.448 1-1s-0.448-1-1-1c-0.552 0-1 0.448-1 1s0.448 1 1 1v0zM12 21v1h9v-1h-9z"></path>
</symbol>
<symbol id="icon-file-ai" viewBox="0 0 32 32">
<title>file-ai</title>
<path d="M8.007 10c-1.661 0-3.007 1.342-3.007 2.999v7.002c0 1.656 1.336 2.999 3.007 2.999h16.986c1.661 0 3.007-1.342 3.007-2.999v-7.002c0-1.656-1.336-2.999-3.007-2.999h-16.986zM19 14h-1v-1h3v1h-1v5h1v1h-3v-1h1v-5zM15 17h-3v3h-1v-5c0-1.112 0.898-2 2.005-2h0.99c1.111 0 2.005 0.895 2.005 2v5h-1v-3zM12.999 14c-0.552 0-0.999 0.444-0.999 1v1h3v-1c0-0.552-0.443-1-0.999-1h-1.002z"></path>
</symbol>
</defs>
</svg>
